# xmcd CD database file
#
# Track frame offsets:
#	150
#	25808
#	53210
#	82531
#	94534
#	110535
#	122324
#	140931
#	156264
#	170083
#	188151
#	202512
#
# Disc length: 2880 seconds
#
# Revision: 0
# Processed by: cddbd v1.5.2PL0 Copyright (c) Steve Scherf et al.
# Submitted via: CDex 1.81
#
DISCID=900b3e0c
DTITLE=Various Artist - Cool Jazz
DYEAR=2001
DGENRE=Jazz
TTITLE0=Miles Davis - Compulsion
TTITLE1=Cannonball Adderley - I got rhythm
TTITLE2=Dave Brubeck - The Duke
TTITLE3=Stan Getz - Don't worry about me
TTITLE4=Dizzy Gillespie - Desafinado
TTITLE5=Charles Mingus - Just for laughs (part 2)
TTITLE6=John Coltrane - Naima
TTITLE7=Quincy Jones -Exodus
TTITLE8=George Benson - There never will be another you (short version)
TTITLE9=Eric Dolphy - Litty Ditty
TTITLE10=Thelonious Monk - Round Midnight
TTITLE11=Charlie Parker - Crazeology
EXTD=YEAR: 2001
EXTT0=
EXTT1=
EXTT2=
EXTT3=
EXTT4=
EXTT5=
EXTT6=
EXTT7=
EXTT8=
EXTT9=
EXTT10=
EXTT11=
PLAYORDER=
